<svg width="1024" height="1024" viewBox="0 0 1024 1024" fill="none" xmlns="http://www.w3.org/2000/svg">
<g clip-path="url(#clip0_3_92)">
<path d="M1024 0H0V1024H1024V0Z" fill="url(#paint0_linear_3_92)"/>
<g filter="url(#filter0_d_3_92)">
<path d="M629.077 312.612L694.856 370.463C696.095 371.564 695.321 373.611 693.67 373.611H633.394C631.364 373.611 629.696 372.01 629.627 369.98L628.148 331.121C628.096 329.659 625.963 329.59 625.791 331.035L599.283 560.424C598.801 564.621 595.721 568.045 591.593 568.973L360.949 620.94C358.816 621.422 357.32 618.893 358.764 617.259L451.758 511.518C453.341 509.712 455.904 509.11 458.14 510.005L557 549.914C558.394 550.481 559.322 548.468 557.98 547.763L464.041 499.219C463.06 498.703 462.166 498.032 461.409 497.224L262.984 285.966C261.332 284.212 263.225 281.424 265.461 282.337L549.758 397.091C550.91 397.555 552.235 397.246 553.061 396.3L626.513 312.767C627.167 312.027 628.302 311.959 629.042 312.612H629.077Z" fill="white"/>
<path d="M546.937 387.355L478.92 237.491C477.923 235.289 474.62 235.994 474.62 238.42L474.19 347.394C474.19 349.441 475.274 351.334 477.045 352.349L543.686 390.314C545.63 391.415 547.849 389.385 546.92 387.355H546.937Z" fill="white"/>
<path d="M277.202 712.269V806.226H258.314V765.372H218.13V806.226H199.363V712.269H218.13V750.32H258.314V712.269H277.202Z" fill="white"/>
<path d="M339.077 735.956C343.516 738.881 346.664 742.837 348.522 747.808V732.499H367.151V806.226H348.522V790.796C346.664 795.768 343.516 799.742 339.077 802.7C334.64 805.676 329.324 807.155 323.114 807.155C316.904 807.155 311.313 805.642 306.342 802.631C301.37 799.621 297.5 795.251 294.696 789.523C291.892 783.795 290.499 777.087 290.499 769.362C290.499 761.639 291.892 754.93 294.696 749.202C297.483 743.474 301.37 739.104 306.342 736.094C311.313 733.084 316.904 731.57 323.114 731.57C329.324 731.57 334.64 733.032 339.077 735.956ZM314.857 753.657C311.313 757.476 309.542 762.705 309.542 769.362C309.542 776.02 311.313 781.232 314.857 785C318.401 788.767 323.114 790.659 328.962 790.659C334.812 790.659 339.318 788.732 342.999 784.879C346.681 781.026 348.522 775.848 348.522 769.379C348.522 762.912 346.681 757.596 342.999 753.743C339.318 749.89 334.64 747.963 328.962 747.963C323.286 747.963 318.401 749.873 314.857 753.691V753.657Z" fill="white"/>
<path d="M423.573 790.108V806.209H413.734C405.477 806.209 399.164 804.213 394.777 800.223C390.391 796.232 388.189 789.575 388.189 780.268V748.342H377.937V732.499H388.189V714.265H406.957V732.499H423.453V748.342H406.957V780.544C406.957 784.088 407.662 786.582 409.09 787.993C410.5 789.42 412.908 790.125 416.28 790.125H423.608L423.573 790.108Z" fill="white"/>
<path d="M490.438 736.077C496.166 739.087 500.655 743.457 503.941 749.185C507.227 754.913 508.861 761.621 508.861 769.346C508.861 777.069 507.21 783.761 503.941 789.437C500.655 795.114 496.149 799.483 490.438 802.545C484.709 805.607 478.259 807.138 471.068 807.138C463.877 807.138 457.427 805.607 451.699 802.545C445.97 799.483 441.481 795.114 438.195 789.437C434.91 783.761 433.275 777.069 433.275 769.346C433.275 761.621 434.91 754.913 438.195 749.185C441.481 743.457 445.987 739.087 451.699 736.077C457.427 733.066 463.877 731.553 471.068 731.553C478.259 731.553 484.709 733.066 490.438 736.077ZM457.771 753.313C454.124 756.994 452.318 762.345 452.318 769.346C452.318 776.346 454.141 781.696 457.771 785.377C461.401 789.059 465.838 790.9 471.085 790.9C476.332 790.9 480.753 789.059 484.4 785.377C488.029 781.696 489.852 776.346 489.852 769.346C489.852 762.345 488.029 756.994 484.4 753.313C480.753 749.632 476.332 747.791 471.085 747.791C465.838 747.791 461.418 749.632 457.771 753.313Z" fill="white"/>
<path d="M658.262 807.537L635.966 734.949H635.448C635.535 736.678 635.665 739.27 635.837 742.727C636.01 746.184 636.183 749.899 636.355 753.874C636.528 757.763 636.615 761.306 636.615 764.503V807.537H619.116V714.988H645.818L667.724 785.762H668.113L691.315 714.988H718.017V807.537H699.741V763.726C699.741 760.788 699.783 757.418 699.87 753.615C700.043 749.813 700.172 746.227 700.259 742.857C700.431 739.4 700.562 736.807 700.648 735.079H700.13L676.279 807.537H658.262Z" fill="white"/>
<path d="M787.795 781.311C787.795 786.607 786.492 791.23 783.886 795.181C781.28 799.132 777.498 802.2 772.538 804.386C767.663 806.487 761.695 807.537 754.633 807.537C751.523 807.537 748.455 807.327 745.428 806.907C742.487 806.487 739.629 805.898 736.855 805.141C734.164 804.301 731.601 803.293 729.163 802.116V784.337C733.45 786.187 737.863 787.909 742.403 789.507C747.026 791.02 751.607 791.776 756.146 791.776C759.257 791.776 761.736 791.356 763.586 790.515C765.519 789.675 766.906 788.54 767.747 787.111C768.671 785.682 769.133 784.043 769.133 782.194C769.133 779.924 768.335 777.991 766.738 776.393C765.225 774.797 763.165 773.325 760.559 771.98C757.954 770.551 754.97 769.039 751.607 767.441C749.505 766.432 747.236 765.255 744.799 763.911C742.361 762.481 740.007 760.759 737.737 758.741C735.552 756.639 733.745 754.117 732.316 751.176C730.887 748.233 730.172 744.703 730.172 740.584C730.172 735.204 731.391 730.623 733.828 726.84C736.35 722.973 739.881 720.032 744.42 718.015C749.043 715.996 754.465 714.988 760.686 714.988C765.393 714.988 769.848 715.534 774.051 716.627C778.338 717.72 782.793 719.275 787.417 721.292L781.238 736.171C777.119 734.49 773.421 733.187 770.142 732.263C766.864 731.337 763.501 730.875 760.055 730.875C757.702 730.875 755.684 731.253 754.003 732.01C752.322 732.766 751.019 733.818 750.094 735.162C749.253 736.507 748.833 738.104 748.833 739.953C748.833 742.055 749.464 743.863 750.724 745.375C751.986 746.804 753.877 748.192 756.399 749.536C758.921 750.881 762.072 752.479 765.855 754.328C770.478 756.513 774.388 758.783 777.582 761.137C780.86 763.49 783.382 766.264 785.147 769.458C786.912 772.653 787.795 776.604 787.795 781.311Z" fill="white"/>
<path d="M582.824 807.537H563.251V731.32H538.104V714.988H607.97V731.32H582.824V807.537Z" fill="white"/>
</g>
</g>
<defs>
<filter id="filter0_d_3_92" x="183.363" y="220.167" width="620.432" height="603.371" filterUnits="userSpaceOnUse" color-interpolation-filters="sRGB">
<feFlood flood-opacity="0" result="BackgroundImageFix"/>
<feColorMatrix in="SourceAlpha" type="matrix" values="0 0 0 0 0 0 0 0 0 0 0 0 0 0 0 0 0 0 127 0" result="hardAlpha"/>
<feOffset/>
<feGaussianBlur stdDeviation="8"/>
<feComposite in2="hardAlpha" operator="out"/>
<feColorMatrix type="matrix" values="0 0 0 0 0 0 0 0 0 0 0 0 0 0 0 0 0 0 0.16 0"/>
<feBlend mode="normal" in2="BackgroundImageFix" result="effect1_dropShadow_3_92"/>
<feBlend mode="normal" in="SourceGraphic" in2="effect1_dropShadow_3_92" result="shape"/>
</filter>
<linearGradient id="paint0_linear_3_92" x1="178.878" y1="-593.778" x2="1400.5" y2="-225.759" gradientUnits="userSpaceOnUse">
<stop stop-color="#4F46E5"/>
<stop offset="1" stop-color="#7C3AED"/>
</linearGradient>
<clipPath id="clip0_3_92">
<rect width="1024" height="1024" fill="white"/>
</clipPath>
</defs>
</svg>
