<svg width="512" height="512" viewBox="0 0 512 512" fill="none" xmlns="http://www.w3.org/2000/svg">
<g transform="translate(-135, -120) scale(0.9)">
  <path d="M629.077 312.612L694.856 370.463C696.095 371.564 695.321 373.611 693.67 373.611H633.394C631.364 373.611 629.696 372.01 629.627 369.98L628.148 331.121C628.096 329.659 625.963 329.59 625.791 331.035L599.283 560.424C598.801 564.621 595.721 568.045 591.593 568.973L360.949 620.94C358.816 621.422 357.32 618.893 358.764 617.259L451.758 511.518C453.341 509.712 455.904 509.11 458.14 510.005L557 549.914C558.394 550.481 559.322 548.468 557.98 547.763L464.041 499.219C463.06 498.703 462.166 498.032 461.409 497.224L262.984 285.966C261.332 284.212 263.225 281.424 265.461 282.337L549.758 397.091C550.91 397.555 552.235 397.246 553.061 396.3L626.513 312.767C627.167 312.027 628.302 311.959 629.042 312.612H629.077Z" fill="white"/>
  <path d="M546.937 387.355L478.92 237.491C477.923 235.289 474.62 235.994 474.62 238.42L474.19 347.394C474.19 349.441 475.274 351.334 477.045 352.349L543.686 390.314C545.63 391.415 547.849 389.385 546.92 387.355H546.937Z" fill="white"/>
</g>
</svg>
