<svg xmlns="http://www.w3.org/2000/svg" fill="none" viewBox="210 250 709.03 630">
<g clip-path="url(#clip0_8_131)">
<path d="M810.344 375.146L918.032 469.851C920.059 471.653 918.792 475.005 916.088 475.005H817.413C814.09 475.005 811.358 472.386 811.246 469.063L808.824 405.447C808.739 403.054 805.247 402.941 804.966 405.306L761.57 780.832C760.781 787.703 755.74 793.307 748.982 794.828L371.401 879.902C367.909 880.69 365.459 876.551 367.824 873.875L520.062 700.77C522.653 697.813 526.849 696.828 530.51 698.292L692.35 763.625C694.631 764.555 696.152 761.26 693.955 760.105L540.169 680.635C538.564 679.791 537.099 678.692 535.86 677.369L211.025 331.525C208.321 328.653 211.419 324.09 215.08 325.583L680.495 513.444C682.381 514.205 684.55 513.698 685.902 512.149L806.148 375.4C807.219 374.189 809.077 374.076 810.288 375.146H810.344Z" fill="url(#paint0_linear_8_131)"/>
<path d="M675.877 497.505L564.529 252.168C562.895 248.563 557.488 249.718 557.488 253.688L556.784 432.087C556.784 435.439 558.559 438.536 561.459 440.198L670.554 502.349C673.737 504.151 677.369 500.828 675.849 497.505H675.877Z" fill="url(#paint1_linear_8_131)"/>
</g>
<defs>
<linearGradient id="paint0_linear_8_131" x1="333.858" y1="3.63608" x2="1137.35" y2="313.032" gradientUnits="userSpaceOnUse">
<stop stop-color="#4F46E5"/>
<stop offset="1" stop-color="#7C3AED"/>
</linearGradient>
<linearGradient id="paint1_linear_8_131" x1="577.646" y1="103.378" x2="729.96" y2="125.049" gradientUnits="userSpaceOnUse">
<stop stop-color="#4F46E5"/>
<stop offset="1" stop-color="#7C3AED"/>
</linearGradient>
<clipPath id="clip0_8_131">
<rect width="1130" height="1130" fill="white"/>
</clipPath>
</defs>
</svg>